:SAMPLES-PER-SECOND 30
:FRAME-RANGE 1-1700
:FULLY-SPECIFIED
:DEGREES
426
root  31.5576 35.6116 -35.5126 -17.3631 16.1474 -3.86258
RightUpLeg  -12.9883 -5.99685 12.8597
RightLeg  48.3002 -10.5012 -12.6944
RightFoot  -19.2259 -0.592047 -6.69712
RightToes  -1.16417e-010 0 -3.6325e-017
Spine  19.2928 -1.06672 -2.65599
Spine1  4.03294 -5.74567 5.1275
HEad  9.07842 20.7055 -5.82905
LeftShoulder1  3.15547 -5.91566 -27.423
LeftArm  81.6504 -37.2147 -92.9607
LeftForeArm  -1.50934 -15.8447 -13.2168
LeftHand  -0.0128478 4.65094 -0.0956782
RightShoulder  14.2069 25.7674 42.0316
RightArm  37.6646 10.6255 21.298
RightForeArm  16.6985 27.2403 4.96908
RightHand  1.45995 7.41826 12.7726
LeftUpLeg  -97.5326 24.3531 -73.5127
LeftLeg  124.583 -3.06344 3.64177
LeftFoot  12.5361 1.42305 -7.08873
LeftToes  1.03528e-008 1.55373e-010 -2.26046e-010
427
root  31.4735 36.1427 -35.4466 -16.7017 16.3555 -3.4859
RightUpLeg  -11.6059 -6.94977 12.1794
RightLeg  44.5581 -10.4241 -11.1067
RightFoot  -17.8387 -0.520124 -7.03057
RightToes  -1.16417e-010 0 -3.6325e-017
Spine  19.0931 -0.650649 -2.54115
Spine1  3.41231 -5.41004 4.79014
HEad  11.081 21.1317 -5.98481
LeftShoulder1  3.15949 -5.88235 -27.5896
LeftArm  79.4317 -37.5043 -92.8922
LeftForeArm  0.626889 -15.181 -13.6948
LeftHand  -0.0158006 4.77065 0.106579
RightShoulder  14.5453 26.3041 42.2599
RightArm  37.7919 11.0395 21.3574
RightForeArm  16.1228 26.2963 4.78877
RightHand  1.46429 7.59154 12.6324
LeftUpLeg  -98.7658 23.594 -73.3471
LeftLeg  124.093 -2.60484 3.08546
LeftFoot  11.0802 1.24672 -6.62835
LeftToes  1.03528e-008 1.55373e-010 -2.26046e-010
428
root  31.3884 36.8716 -35.4448 -15.3992 16.9176 -2.77271
RightUpLeg  -10.1089 -8.49798 10.8889
RightLeg  39.127 -9.67362 -8.61409
RightFoot  -15.7163 -0.378234 -7.11408
RightToes  -1.16417e-010 0 -3.6325e-017
Spine  18.6767 -0.315252 -2.95425
Spine1  2.64928 -5.2507 4.75412
HEad  13.2284 21.6562 -5.99482
LeftShoulder1  3.15608 -5.86393 -27.6202
LeftArm  77.7866 -37.8778 -92.7116
LeftForeArm  1.4484 -14.716 -14.0453
LeftHand  -0.0196253 4.86987 -0.21712
RightShoulder  14.7772 26.5788 42.5552
RightArm  38.1715 11.47 21.7506
RightForeArm  15.5935 25.1043 4.55498
RightHand  1.48684 7.83904 12.5797
LeftUpLeg  -99.8355 22.2104 -73.3523
LeftLeg  123.493 -3.33368 4.17687
LeftFoot  10.6761 1.26399 -6.82858
LeftToes  1.03528e-008 1.55373e-010 -2.26046e-010
429
root  31.3341 37.6814 -35.5892 -13.4374 17.7488 -1.76547
RightUpLeg  -8.89156 -9.5912 9.32855
RightLeg  32.731 -9.05427 -6.47004
RightFoot  -13.1963 -0.183328 -5.81577
RightToes  -1.16417e-010 0 -3.6325e-017
Spine  18.3624 -0.122283 -3.55484
Spine1  1.85783 -5.12638 4.89247
HEad  14.6869 22.0368 -6.40433
LeftShoulder1  3.14046 -5.83601 -27.5515
LeftArm  77.304 -37.9947 -92.5597
LeftForeArm  0.814237 -14.6091 -14.1655
LeftHand  -0.0235504 4.99475 -0.705255
RightShoulder  14.6708 26.3411 42.595
RightArm  38.7351 11.7977 21.9551
RightForeArm  14.8543 24.9378 4.5583
RightHand  1.45551 7.80533 12.3421
LeftUpLeg  -100.61 20.7566 -73.5527
LeftLeg  122.688 -3.16156 4.06208
LeftFoot  11.5601 1.65926 -8.53079
LeftToes  1.03528e-008 1.55373e-010 -2.26046e-010
430
root  31.2748 38.4203 -35.8008 -11.7812 18.7506 -1.45425
RightUpLeg  -7.46889 -8.18702 8.97702
RightLeg  26.2427 -10.4034 -5.76255
RightFoot  -11.8735 -0.0956025 -3.30609
RightToes  -1.16417e-010 0 -3.6325e-017
Spine  18.7304 -0.101502 -3.61268
Spine1  1.01499 -5.02368 5.2887
HEad  15.2957 22.3183 -6.89023
LeftShoulder1  3.11262 -5.85 -27.1925
LeftArm  77.1421 -37.7797 -92.6238
LeftForeArm  0.692213 -14.5571 -14.2142
LeftHand  -0.0258539 5.06242 -0.685919
RightShoulder  14.532 26.1672 42.4325
RightArm  38.7293 11.7611 22.1337
RightForeArm  15.6277 25.2045 4.57501
RightHand  1.47097 8.02111 12.2656
LeftUpLeg  -100.962 19.1587 -72.8266
LeftLeg  122.034 -3.35609 4.45306
LeftFoot  13.0468 2.37002 -11.3107
LeftToes  1.03528e-008 1.55373e-010 -2.26046e-010
431
root  31.1757 38.8033 -36.0253 -10.3164 19.4513 -1.28625
RightUpLeg  -7.17177 -5.51827 9.17221
RightLeg  22.1071 -10.8588 -4.98542
RightFoot  -10.5586 -0.0577482 -2.00121
RightToes  -1.16417e-010 0 -3.6325e-017
Spine  19.4515 0.0187375 -3.71496
Spine1  0.204667 -4.86281 5.60648
HEad  15.1545 22.7379 -6.80036
LeftShoulder1  3.07935 -5.89123 -26.6752
LeftArm  81.659 -37.4948 -92.7961
LeftForeArm  -4.06939 -15.8421 -13.3578
LeftHand  -0.0249681 4.9333 -0.726369
RightShoulder  14.5899 26.3912 42.2642
RightArm  38.2035 11.6774 22.0688
RightForeArm  16.327 25.5406 4.61096
RightHand  1.47921 8.1042 12.2562
LeftUpLeg  -101.359 17.4405 -72.0418
LeftLeg  121.392 -3.68529 5.06178
LeftFoot  13.8551 2.79101 -12.8279
LeftToes  1.03528e-008 1.55373e-010 -2.26046e-010
432
root  31.0397 38.7762 -36.1152 -9.4917 20.8363 -0.984924
RightUpLeg  -8.03634 -5.77195 9.00059
RightLeg  22.1726 -8.64621 -4.06463
RightFoot  -9.69179 -0.0220755 -3.01701
RightToes  -1.16417e-010 0 -3.6325e-017
Spine  20.0722 0.0626416 -4.25233
Spine1  -0.068559 -5.06261 5.92596
HEad  14.8316 22.775 -6.369
LeftShoulder1  3.06442 -5.9757 -26.209
LeftArm  85.3864 -37.4378 -93.3219
LeftForeArm  -7.4012 -16.812 -12.6216
LeftHand  -0.0244117 4.8463 -0.589379
RightShoulder  14.4658 26.1053 42.3212
RightArm  38.3846 12.3709 21.6017
RightForeArm  16.0752 25.814 4.6846
RightHand  1.49998 8.21829 12.3229
LeftUpLeg  -100.795 16.1432 -71.3818
LeftLeg  120.944 -3.71041 5.19069
LeftFoot  14.0564 2.85555 -13.0127
LeftToes  1.03528e-008 1.55373e-010 -2.26046e-010
433
root  30.8765 38.3852 -36.0705 -9.86127 21.7989 -1.13208
RightUpLeg  -9.61128 -6.58761 9.35089
RightLeg  25.9876 -9.0956 -5.02619
RightFoot  -10.8108 -0.0554466 -3.7995
RightToes  -1.16417e-010 0 -3.6325e-017
Spine  20.6898 0.364028 -3.92422
Spine1  0.103366 -4.99447 5.85132
HEad  14.6576 22.05 -6.11793
LeftShoulder1  3.07962 -6.10153 -25.9337
LeftArm  85.7682 -37.6467 -94.1019
LeftForeArm  -7.27513 -16.8146 -12.6117
LeftHand  -0.0258057 4.92299 -0.336367
RightShoulder  14.5226 26.6775 41.6126
RightArm  36.6528 11.6637 21.7325
RightForeArm  17.0578 26.1576 4.7074
RightHand  1.47627 8.07031 12.2636
LeftUpLeg  -100.567 16.2633 -70.194
LeftLeg  121.31 -3.04739 4.11577
LeftFoot  13.966 2.85341 -13.0484
LeftToes  1.03528e-008 1.55373e-010 -2.26046e-010
434
root  30.7433 37.6958 -35.9009 -11.5757 22.4417 -1.99493
RightUpLeg  -11.1027 -6.19293 10.6502
RightLeg  32.1136 -10.0973 -7.01218
RightFoot  -13.3574 -0.170931 -4.58427
RightToes  -1.16417e-010 0 -3.6325e-017
Spine  21.1034 0.552351 -2.79516
Spine1  0.703281 -4.84748 5.65212
HEad  15.8917 21.6811 -5.89904
LeftShoulder1  3.06799 -6.0837 -25.8694
LeftArm  84.4065 -37.7715 -94.6121
LeftForeArm  -5.20893 -16.3394 -12.9566
LeftHand  -0.0258745 4.95592 0.106836
RightShoulder  14.6154 26.7399 41.8054
RightArm  37.1237 11.9948 20.9946
RightForeArm  16.5914 26.6364 4.83915
RightHand  1.4671 7.92909 12.3213
LeftUpLeg  -100.402 17.3844 -68.7761
LeftLeg  122.57 -2.49806 3.12313
LeftFoot  12.5847 2.39381 -11.6323
LeftToes  1.03528e-008 1.55373e-010 -2.26046e-010
435
root  30.625 36.951 -35.6684 -13.8474 22.9756 -2.71545
RightUpLeg  -11.7595 -5.87313 11.9377
RightLeg  38.0225 -11.1486 -9.48111
RightFoot  -15.8262 -0.325594 -5.58013
RightToes  -1.16417e-010 0 -3.6325e-017
Spine  21.3579 0.783673 -1.80726
Spine1  1.416 -4.65151 5.55267
HEad  16.9589 21.6452 -5.92916
LeftShoulder1  3.03881 -5.98112 -25.9091
LeftArm  88.545 -37.2697 -94.6677
LeftForeArm  -8.77023 -17.4882 -12.0117
LeftHand  -0.0253145 4.92144 0.369774
RightShoulder  14.703 26.9566 41.7458
RightArm  36.0623 11.4687 20.7419
RightForeArm  17.2694 27.2444 4.93879
RightHand  1.45961 7.67103 12.511
LeftUpLeg  -100.527 19.3458 -68.207
LeftLeg  124.032 -2.50493 2.95806
LeftFoot  11.0135 1.37769 -7.30751
LeftToes  1.03528e-008 1.55373e-010 -2.26046e-010
436
root  30.5611 36.457 -35.4756 -15.7769 23.942 -3.34061
RightUpLeg  -11.6564 -6.79887 12.7415
RightLeg  41.5939 -11.8318 -11.3186
RightFoot  -17.4592 -0.492622 -7.00182
RightToes  -1.16417e-010 0 -3.6325e-017
Spine  21.9031 0.590737 -0.465827
Spine1  1.23926 -4.61646 5.18234
HEad  16.8017 21.7212 -6.19242
LeftShoulder1  3.04861 -5.91799 -26.2403
LeftArm  92.7496 -36.2389 -94.0714
LeftForeArm  -13.1523 -18.7784 -10.8616
LeftHand  -0.0213722 4.61383 0.516571
RightShoulder  14.4486 26.4505 41.73
RightArm  34.1229 10.4178 20.6408
RightForeArm  19.1516 28.5573 5.1348
RightHand  1.46643 7.59857 12.6441
LeftUpLeg  -100.25 21.1642 -68.1588
LeftLeg  125.092 -2.71348 3.11342
LeftFoot  8.87388 0.720678 -4.34608
LeftToes  1.03528e-008 1.55373e-010 -2.26046e-010
